<?xml version="1.0" encoding="utf-8"?>
<!-- Generator: Adobe Illustrator 19.2.1, SVG Export Plug-In . SVG Version: 6.00 Build 0)  -->
<svg version="1.1" id="Layer_1" xmlns="http://www.w3.org/2000/svg" xmlns:xlink="http://www.w3.org/1999/xlink" x="0px" y="0px"
	 viewBox="0 0 108 108" style="enable-background:new 0 0 108 108;" xml:space="preserve">
<style type="text/css">
	.st0{fill:#231F20;}
</style>
<g>
	<g>
		<g>
			<path class="st0" d="M37.7,70.3c-9.2,0-15.6-7-15.6-16.5c0-9.6,6.4-16.5,15.6-16.5c9.3,0,15.7,6.9,15.7,16.5
				C53.4,63.3,47,70.3,37.7,70.3z M37.7,44.6c-4.3,0-7.2,3.7-7.2,9.2c0,5.5,2.9,9.2,7.2,9.2c4.3,0,7.3-3.7,7.3-9.2
				C45,48.2,42.1,44.6,37.7,44.6z"/>
			<path class="st0" d="M73.9,37.8l12.2,32h-8.5l-2.3-6.2H63.7l-2.2,6.2h-8.3l12.2-32H73.9z M66.2,56.7h6.6l-3.3-9L66.2,56.7z"/>
		</g>
	</g>
	<g>
		<path class="st0" d="M98,10v88H10V10H98 M108,0H0v108h108V0L108,0z"/>
	</g>
</g>
</svg>
